
    <svg xmlns="http://www.w3.org/2000/svg" viewBox="0 0 800 915">
        
    <defs>
        <linearGradient id="headerGradient" x1="0%" y1="0%" x2="100%" y2="0%">
        <stop offset="0%" style="stop-color:#2d3748;stop-opacity:0.1" />
        <stop offset="100%" style="stop-color:#2d3748;stop-opacity:0.05" />
        </linearGradient>
        <filter id="dropShadow">
        <feDropShadow dx="0" dy="1" stdDeviation="2" flood-opacity="0.1"/>
        </filter>
        <style>
        @import url('https://fonts.googleapis.com/css2?family=Inter:wght@400;500;600&amp;display=swap');
        .title { font-family: 'Inter', sans-serif; font-size: 24px; font-weight: 600; }
        .subtitle { font-family: 'Inter', sans-serif; font-size: 14px; fill: #666; }
        .platform-name { font-family: 'Inter', sans-serif; font-size: 16px; font-weight: 500; }
        .data-row { font-family: 'Inter', sans-serif; font-size: 14px; }
        .metric-value { font-family: 'Inter', sans-serif; font-size: 14px; font-weight: 500; }
        .trend-indicator { font-family: 'Inter', sans-serif; font-size: 12px; }
        .section-header { font-family: 'Inter', sans-serif; font-size: 18px; font-weight: 600; }
        </style>
    </defs>
    

        <!-- Background -->
        <rect width="100%" height="100%" fill="#ffffff"/>

        <!-- Header -->
        <g transform="translate(40, 40)">
            <rect width="720" height="80" fill="url(#headerGradient)" rx="8"/>
            <text class="title" x="20" y="35">opencv_dart</text>
            <text class="subtitle" x="20" y="60">Size Analysis Report</text>
        </g>
    
        <g transform="translate(40, 150)" filter="url(#dropShadow)">
            <rect width="720" height="40" fill="#3DDC84" opacity="0.1" rx="4"/>
            
    <g transform="translate(20, 8) scale(0.9)">
        
            <path d="M17.6 9.48l1.84-3.18c.16-.31.04-.69-.26-.85a.637.637 0 0 0-.83.22l-1.88 3.24a11.463 11.463 0 0 0-8.94 0L5.65 5.67a.643.643 0 0 0-.87-.2c-.28.18-.37.54-.22.83L6.4 9.48A10.78 10.78 0 0 0 1 18h22a10.78 10.78 0 0 0-5.4-8.52zM7 15.25a1.25 1.25 0 1 1 0-2.5 1.25 1.25 0 0 1 0 2.5zm10 0a1.25 1.25 0 1 1 0-2.5 1.25 1.25 0 0 1 0 2.5z" fill="#3DDC84"/>
        
    </g>
    
            <text x="50" y="24" class="platform-name" fill="#3DDC84">ANDROID</text>
        </g>
        
                <g transform="translate(60, 195)">
                    <text class="data-row" x="0" y="15">arm64-v8a</text>
                    <text class="data-row" x="200" y="15">Total: </text>
                    <text class="metric-value" x="250" y="15">21.98 MB</text>
                    <text class="data-row" x="400" y="15">Package: </text>
                    <text class="metric-value" x="500" y="15">15.52 MB</text>
                </g>
                
                <g transform="translate(60, 240)">
                    <text class="data-row" x="0" y="15">armeabi-v7a</text>
                    <text class="data-row" x="200" y="15">Total: </text>
                    <text class="metric-value" x="250" y="15">19.59 MB</text>
                    <text class="data-row" x="400" y="15">Package: </text>
                    <text class="metric-value" x="500" y="15">13.68 MB</text>
                </g>
                
                <g transform="translate(60, 285)">
                    <text class="data-row" x="0" y="15">x86_64</text>
                    <text class="data-row" x="200" y="15">Total: </text>
                    <text class="metric-value" x="250" y="15">24.27 MB</text>
                    <text class="data-row" x="400" y="15">Package: </text>
                    <text class="metric-value" x="500" y="15">17.69 MB</text>
                </g>
                
                <g transform="translate(60, 330)">
                    <text class="data-row" x="0" y="15">full_apk_size</text>
                    <text class="data-row" x="200" y="15">Total: </text>
                    <text class="metric-value" x="250" y="15">63.87 MB</text>
                    <text class="data-row" x="400" y="15">Package: </text>
                    <text class="metric-value" x="500" y="15">45.95 MB</text>
                </g>
                
        <g transform="translate(40, 395)" filter="url(#dropShadow)">
            <rect width="720" height="40" fill="#FCC624" opacity="0.1" rx="4"/>
            
    <g transform="translate(20, 8) scale(0.8)">
        
            <path fill="currentColor" d="m 10.43544,6.2228142 c 0,0.08432 -0.08432,0.08432 -0.08432,0.08432 H 10.2668 c -0.08432,0 -0.08432,-0.08432 -0.16864,-0.1686399 0,0 -0.08432,-0.08432 -0.08432,-0.16864 0,-0.08432 0,-0.08432 0.08432,-0.08432 l 0.16864,0.08432 c 0.08432,0.08432 0.168639,0.16864 0.168639,0.2529596 M 8.9176809,5.3796145 c 0,-0.4215998 -0.16864,-0.6745598 -0.4216001,-0.6745598 0,0 0,0.08432 -0.08432,0.08432 v 0.16864 H 8.664721 c 0,0.1686399 0.08432,0.2529599 0.08432,0.4215999 h 0.1686398 m 2.9511992,-0.4216 c 0.16864,0 0.25296,0.1686399 0.33728,0.4215998 h 0.16864 c -0.08432,-0.08432 -0.08432,-0.16864 -0.08432,-0.2529599 0,-0.08432 0,-0.1686399 -0.08432,-0.25296 -0.08432,-0.08432 -0.16864,-0.1686399 -0.25296,-0.1686399 0,0 -0.08432,0.08432 -0.16864,0.08432 0,0.08432 0.08432,0.08432 0.08432,0.16864 M 9.3392805,6.3071345 c -0.08432,0 -0.08432,0 -0.08432,-0.08432 0,-0.08432 0,-0.16864 0.08432,-0.2529597 0.16864,0 0.2529603,-0.08432 0.2529603,-0.08432 0.08432,0 0.08432,0.08432 0.08432,0.08432 0,0.08432 -0.08432,0.16864 -0.2529596,0.3372799 h -0.084321 m -0.92752,-0.08432 C 8.0744802,6.0541747 7.9901606,5.8012152 7.9901606,5.379615 c 0,-0.2529599 0,-0.4215998 0.16864,-0.5902398 0.08432,-0.1686399 0.2529596,-0.25296 0.4216001,-0.25296 0.1686399,0 0.2529597,0.08432 0.4215996,0.25296 0.08432,0.2529599 0.16864,0.5059199 0.16864,0.7588797 V 5.716895 h 0.08432 v -0.08432 c 0.08432,0 0.08432,-0.1686399 0.08432,-0.5059201 0,-0.25296 0,-0.5059198 -0.1686399,-0.7588798 C 9.0020006,4.1148148 8.8333607,3.946175 8.4960808,3.946175 c -0.2529602,0 -0.5059199,0.1686398 -0.5902396,0.4215998 -0.16864,0.3372799 -0.202368,0.5902399 -0.202368,1.0118397 0,0.33728 0.1180472,0.6745597 0.4553277,1.0118396 0.08432,-0.08432 0.1686399,-0.08432 0.2529596,-0.1686399 M 18.951758,18.111931 c 0.08431,0 0.08431,-0.03373 0.08431,-0.109623 0,-0.185504 -0.08431,-0.404736 -0.33728,-0.649263 -0.25296,-0.252961 -0.674559,-0.413169 -1.18048,-0.480625 -0.08431,-0.0084 -0.168638,-0.0084 -0.168638,-0.0084 -0.08432,-0.01686 -0.08432,-0.01686 -0.168641,-0.01686 -0.08431,-0.0084 -0.25296,-0.02529 -0.33728,-0.04216 0.25296,-0.784175 0.33728,-1.4756 0.33728,-2.082703 0,-0.8432 -0.16864,-1.43344 -0.50592,-1.93936 -0.337279,-0.505919 -0.674559,-0.758879 -1.09616,-0.843199 -0.08431,0.08432 -0.08431,0.08432 -0.08431,0.16864 0.4216,0.16864 0.843201,0.505919 1.096159,1.011839 0.252961,0.59024 0.337281,1.096161 0.337281,1.6864 0,0.472192 -0.08432,1.172048 -0.421601,2.065839 -0.337279,0.134917 -0.674559,0.446896 -0.927519,0.935953 0,0.07588 0,0.11804 0.08431,0.11804 0,0 0.08432,-0.07588 0.16864,-0.219232 0.168641,-0.143344 0.252961,-0.286687 0.421599,-0.430032 0.252961,-0.143344 0.421601,-0.219231 0.674561,-0.219231 0.421601,0 0.8432,0.05902 1.09616,0.177071 0.33728,0.109623 0.50592,0.227665 0.590239,0.362576 0.08431,0.126486 0.16864,0.244528 0.25296,0.354144 0,0.109622 0.08432,0.160208 0.08432,0.160208 M 11.19432,5.8855343 C 11.11,5.8012143 11.11,5.6325746 11.11,5.4639348 c 0,-0.3372802 0,-0.5059201 0.16864,-0.7588801 0.16864,-0.16864 0.33728,-0.2529599 0.50592,-0.2529599 0.252959,0 0.421599,0.16864 0.590239,0.3372799 0.08432,0.2529599 0.16864,0.4215998 0.16864,0.6745601 0,0.4215995 -0.16864,0.6745598 -0.50592,0.7588794 0,0 0.08432,0.08432 0.16864,0.08432 0.16864,0 0.252961,0.08432 0.421601,0.1686401 0.08432,-0.50592 0.168639,-0.8431999 0.168639,-1.2648 0,-0.5059198 -0.08432,-0.8431997 -0.25296,-1.0961597 C 12.29048,3.8618549 12.03752,3.7775349 11.70024,3.7775349 c -0.25296,0 -0.50592,0.08432 -0.75888,0.25296 -0.16864,0.25296 -0.25296,0.4215999 -0.25296,0.6745598 0,0.4215999 0.08432,0.7588801 0.25296,1.09616 0.08432,0 0.16864,0.08432 0.25296,0.08432 M 12.20616,7.234654 C 11.11,7.993534 10.266801,8.3308139 9.5922408,8.3308139 c -0.5902402,0 -1.1804803,-0.2529602 -1.6863996,-0.6745598 0.08432,0.16864 0.1686393,0.3372799 0.2529597,0.4215996 l 0.5059198,0.5059199 c 0.3372799,0.3372799 0.75888,0.5059198 1.1804798,0.5059198 0.5902395,0 1.2647995,-0.3372799 2.1079995,-0.9275194 l 0.75888,-0.5059199 c 0.16864,-0.1686399 0.33728,-0.3372799 0.33728,-0.5902401 0,-0.08432 0,-0.1686399 -0.08432,-0.1686399 C 12.88072,6.728734 12.45912,6.4757745 11.61592,6.2228142 10.85704,5.8855343 10.266801,5.7168945 9.9295207,5.7168945 c -0.2529603,0 -0.6745598,0.1686398 -1.2648,0.5059197 -0.5059198,0.33728 -0.8431997,0.6745599 -0.8431997,1.0118398 0,0 0.08432,0.08432 0.1686399,0.2529602 0.5059199,0.4215996 1.0118397,0.6745598 1.5177596,0.6745598 0.6745595,0 1.5177595,-0.3372799 2.6139195,-1.1804797 v 0.16864 c 0.08432,0 0.08432,0.08432 0.08432,0.08432 m 1.93936,17.0326347 c 0.337279,0.634087 0.927518,0.952816 1.602079,0.952816 0.16864,0 0.33728,-0.02529 0.505919,-0.07588 0.16864,-0.03373 0.33728,-0.09275 0.4216,-0.160207 0.08432,-0.05902 0.168641,-0.118054 0.252961,-0.185505 0.16864,-0.05902 0.16864,-0.101177 0.25296,-0.143343 l 1.433439,-1.239504 c 0.33728,-0.268981 0.67456,-0.504234 1.096161,-0.708287 0.337279,-0.202369 0.674559,-0.337281 0.843199,-0.413168 0.252959,-0.06745 0.421599,-0.16864 0.590239,-0.303552 0.08432,-0.126485 0.16864,-0.286689 0.16864,-0.489056 0,-0.244529 -0.16864,-0.430032 -0.33728,-0.564945 -0.16864,-0.134917 -0.337279,-0.227663 -0.505919,-0.286687 -0.16864,-0.05902 -0.33728,-0.193936 -0.590241,-0.421599 -0.168638,-0.219233 -0.337279,-0.522785 -0.421599,-0.919088 l -0.08431,-0.489057 c -0.08432,-0.227664 -0.08432,-0.396304 -0.16864,-0.489056 0,-0.02529 0,-0.03373 -0.08432,-0.03373 -0.08431,0 -0.25296,0.07588 -0.33728,0.219232 -0.16864,0.143345 -0.33728,0.303552 -0.505919,0.472192 -0.08432,0.16864 -0.337281,0.320416 -0.505921,0.463761 -0.25296,0.143343 -0.505919,0.219231 -0.674559,0.219231 -0.674561,0 -1.01184,-0.185504 -1.2648,-0.54808 -0.16864,-0.269824 -0.25296,-0.581808 -0.33728,-0.935951 -0.16864,-0.143345 -0.25296,-0.219232 -0.421601,-0.219232 -0.421599,0 -0.590239,0.438463 -0.590239,1.323823 v 2.622351 c 0,0.07588 -0.08431,0.244529 -0.08431,0.50592 -0.08432,0.261392 -0.08432,0.558199 -0.08432,0.893791 l -0.168638,0.935951 v 0.01434 M 1.9191226,23.818708 c 0.7841758,0.114679 1.6863996,0.360045 2.7066713,0.734426 1.0202716,0.371008 1.6442394,0.564944 1.8719032,0.564944 0.5902402,0 1.0792959,-0.261392 1.4840321,-0.766468 0.08432,-0.163581 0.08432,-0.355831 0.08432,-0.576749 0,-0.796825 -0.4806235,-1.804449 -1.4418716,-3.027087 L 6.0508016,19.980462 C 5.9327534,19.820254 5.7894098,19.575726 5.6039058,19.246878 5.4268337,18.918029 5.2666257,18.66507 5.1401457,18.487999 5.0305299,18.294062 4.8534579,18.100127 4.6257939,17.90619 4.406562,17.712254 4.153602,17.585774 3.8753462,17.518318 c -0.354144,0.06746 -0.5986719,0.185504 -0.7167199,0.345712 -0.1180487,0.160208 -0.1855039,0.33728 -0.2023679,0.522784 -0.025296,0.177072 -0.075889,0.295121 -0.160208,0.354144 -0.08432,0.05059 -0.2276638,0.09275 -0.4215999,0.134917 -0.04216,0 -0.1180486,0 -0.2276639,0.0084 h -0.227664 c -0.4468958,0 -0.7504477,0.05059 -0.9106557,0.134917 -0.2107999,0.244528 -0.32041584,0.522784 -0.32041584,0.817904 0,0.134917 0.033728,0.362576 0.10118396,0.682992 0.0674559,0.311983 0.10118396,0.564944 0.10118396,0.742015 0,0.345712 -0.10118396,0.691424 -0.3119839,1.037136 -0.21079995,0.362576 -0.32041592,0.6324 -0.32041592,0.82465 0.0843199,0.327161 0.64083184,0.557355 1.66110344,0.692267 m 2.8078553,-7.664667 c 0,-0.581808 0.151776,-1.22264 0.4637599,-1.981521 C 5.4942897,13.411089 5.7978415,12.90517 6.0929615,12.56789 6.0760955,12.48357 6.0339375,12.48357 5.9664814,12.48357 l -0.08432,-0.08432 c -0.244528,0.252959 -0.539648,0.8432 -0.8937919,1.6864 -0.354144,0.758879 -0.5396479,1.458735 -0.5396479,1.973086 0,0.37944 0.092752,0.708288 0.2613919,0.994977 0.185504,0.278256 0.6323999,0.682992 1.3406877,1.197342 l 0.8937915,0.581809 c 0.9528158,0.826336 1.4587356,1.399712 1.4587356,1.736991 0,0.177073 -0.08432,0.354144 -0.3372799,0.54808 -0.1686399,0.202368 -0.3963038,0.303552 -0.5902396,0.303552 -0.016866,0 -0.025298,0.01686 -0.025298,0.05902 0,0.0084 0.08432,0.177072 0.2613918,0.505919 0.3541441,0.480625 1.1130241,0.716721 2.1248638,0.716721 1.8550396,0 3.2884786,-0.758881 4.3846386,-2.276639 0,-0.421601 0,-0.682993 -0.08432,-0.792608 v -0.311985 c 0,-0.548079 0.08432,-0.961247 0.25296,-1.231071 0.168641,-0.269825 0.337281,-0.396305 0.590241,-0.396305 0.168639,0 0.337279,0.05902 0.505919,0.185505 0.08432,-0.649264 0.08432,-1.214207 0.08432,-1.720128 0,-0.767311 0,-1.399711 -0.168641,-1.989952 -0.08431,-0.505919 -0.25296,-0.927519 -0.421599,-1.264799 L 14.474368,12.14629 C 14.305727,11.89333 14.221407,11.64037 14.052767,11.38741 13.968447,11.05013 13.884128,10.79717 13.884128,10.37557 13.631167,9.9539701 13.462527,9.5323706 13.209568,9.1107704 13.040928,8.6891707 12.872288,8.2675706 12.703648,7.9302907 l -0.75888,0.5902401 c -0.8432,0.5902396 -1.51776,0.8431997 -2.1079993,0.8431997 -0.5059198,0 -0.9275199,-0.08432 -1.1804796,-0.4216001 L 8.1503686,8.5205338 c 0,0.2529597 -0.08432,0.5902396 -0.2529597,0.9275195 L 7.3661932,10.459893 c -0.2360962,0.59024 -0.3625757,0.92752 -0.3878721,1.18048 -0.033726,0.16864 -0.059024,0.33728 -0.075888,0.33728 l -0.6323993,1.2648 c -0.6829921,1.264799 -1.028704,2.436847 -1.028704,3.406527 0,0.193935 0.016864,0.396303 0.050593,0.598672 C 4.9124819,16.98626 4.7269779,16.623684 4.7269779,16.151492 m 6.0373101,7.976669 c -1.0961593,0 -1.9393591,0.148404 -2.5295992,0.442681 v -0.02529 c -0.4215997,0.50592 -0.8937914,0.767311 -1.5514877,0.767311 -0.4131678,0 -1.0624313,-0.160207 -1.9393592,-0.480623 C 3.8584822,24.528682 3.0743064,24.295958 2.3913145,24.142496 2.3238586,24.123102 2.1720826,24.094434 1.9275546,24.055647 1.6914587,24.017702 1.4722268,23.978915 1.2782908,23.940127 1.1012189,23.902183 0.89885097,23.844846 0.67961902,23.767272 0.46881911,23.700659 0.30017912,23.613809 0.17369915,23.508409 0.05733759,23.402166 0,23.282432 0,23.148364 c 0,-0.134917 0.02866879,-0.2791 0.08600637,-0.432563 0.05396478,-0.09275 0.11298877,-0.185503 0.17201276,-0.269823 0.0590241,-0.09276 0.10961597,-0.177073 0.14334396,-0.261391 0.0505921,-0.07588 0.0843201,-0.151776 0.11804797,-0.236098 0.033728,-0.07588 0.0674559,-0.151776 0.0843199,-0.244527 0.016864,-0.08432 0.0337282,-0.16864 0.0337282,-0.252959 0,-0.08432 -0.0337282,-0.33728 -0.10118396,-0.784177 -0.0674559,-0.438463 -0.10118396,-0.716719 -0.10118396,-0.834768 0,-0.371007 0.0843199,-0.666127 0.26982393,-0.876928 0.185504,-0.2108 0.36257593,-0.320414 0.54807993,-0.320414 h 0.9696797 c 0.075889,0 0.1939359,-0.04216 0.3710079,-0.143345 0.059024,-0.134917 0.1096159,-0.244528 0.1433439,-0.345713 0.04216,-0.101177 0.059024,-0.177071 0.075889,-0.210799 0.016864,-0.05059 0.033729,-0.101191 0.050591,-0.143344 0.033729,-0.05902 0.075889,-0.126486 0.1349116,-0.193936 -0.067456,-0.08431 -0.1011844,-0.193936 -0.1011844,-0.328847 0,-0.09275 0,-0.177073 0.016864,-0.227665 0,-0.303552 0.143344,-0.733583 0.4468959,-1.298527 l 0.2951201,-0.531216 c 0.244528,-0.455328 0.4300319,-0.792608 0.5649439,-1.129887 0.143344,-0.33728 0.29512,-0.8432 0.4637599,-1.51776 0.134912,-0.59024 0.4553279,-1.18048 0.9612475,-1.77072 l 0.6324001,-0.75888 c 0.438464,-0.5059193 0.7251523,-0.9275194 0.88536,-1.2647993 0.1602081,-0.33728 0.2445279,-0.7588797 0.2445279,-1.0961596 0,-0.1686399 -0.042159,-0.6745598 -0.1349115,-1.5177595 -0.08432,-0.8432 -0.1264801,-1.6863998 -0.1264801,-2.4452796 0,-0.5902399 0.050591,-1.0118397 0.1602081,-1.4334396 0.1096158,-0.4216 0.3035515,-0.8431998 0.5902393,-1.1804797 0.2529597,-0.33727991 0.59024,-0.67455982 1.09616,-0.84319977 C 9.4994887,0.08431997 10.089728,0 10.764288,0 c 0.25296,0 0.50592,0 0.75888,0.08431997 0.25296,0 0.59024,0.08431998 1.01184,0.25295994 0.33728,0.16863995 0.67456,0.33727991 0.927519,0.59023984 0.33728,0.25295995 0.59024,0.67455985 0.8432,1.09615975 0.168641,0.5059198 0.337279,1.0118397 0.421601,1.6863995 0.08431,0.4215999 0.08431,0.8431997 0.168639,1.4334396 0,0.5059201 0.08431,0.8432 0.08431,1.0961597 0.08432,0.2529602 0.08432,0.5902401 0.16864,1.0118397 0.08432,0.3372799 0.16864,0.6745598 0.337281,0.9275201 0.16864,0.3372799 0.337279,0.6745598 0.590239,1.0118397 0.25296,0.4215996 0.59024,0.8431992 0.927519,1.3491192 0.758881,0.8432 1.34912,1.77072 1.686401,2.69824 0.4216,0.8432 0.674559,1.939358 0.674559,3.111407 0,0.581807 -0.08432,1.146751 -0.252959,1.694831 0.168639,0 0.252959,0.06745 0.337279,0.185505 0.08431,0.118054 0.16864,0.371007 0.25296,0.76731 l 0.08432,0.623968 c 0.08431,0.185505 0.16864,0.362576 0.421599,0.514352 0.16864,0.151776 0.33728,0.278256 0.59024,0.379441 0.16864,0.08431 0.421601,0.202367 0.590239,0.354143 0.168641,0.16864 0.252961,0.345712 0.252961,0.531216 0,0.286687 -0.08432,0.497488 -0.252961,0.649264 -0.168638,0.16864 -0.337279,0.286688 -0.590239,0.362576 -0.16864,0.08431 -0.505919,0.25296 -1.011839,0.490742 -0.421601,0.249588 -0.8432,0.552296 -1.2648,0.910657 l -0.8432,0.717562 c -0.33728,0.328848 -0.67456,0.564944 -0.927519,0.708288 -0.25296,0.151776 -0.590241,0.227665 -0.927521,0.227665 l -0.590239,-0.06745 c -0.674548,-0.177077 -1.096149,-0.514358 -1.349108,-1.02871 -1.34912,-0.163579 -2.44528,-0.244527 -3.11984,-0.244527" style="stroke-width:0.0602041" />
        
    </g>
    
            <text x="50" y="24" class="platform-name" fill="#FCC624">LINUX</text>
        </g>
        
            <g transform="translate(60, 440)">
                <text class="data-row" x="0" y="15">Total: </text>
                <text class="metric-value" x="50" y="15">203.98 MB</text>
                <text class="data-row" x="200" y="15">Package: </text>
                <text class="metric-value" x="280" y="15">183.73 MB</text>
            </g>
            
        <g transform="translate(40, 505)" filter="url(#dropShadow)">
            <rect width="720" height="40" fill="#000000" opacity="0.1" rx="4"/>
            
    <g transform="translate(20, 8) scale(0.8)">
        
            <path d="M18.71 19.5C17.88 20.74 17 21.95 15.66 21.97C14.32 22 13.89 21.18 12.37 21.18C10.84 21.18 10.37 21.95 9.1 22C7.79 22.05 6.8 20.68 5.96 19.47C4.25 17 2.94 12.45 4.7 9.39C5.57 7.87 7.13 6.91 8.82 6.88C10.1 6.86 11.32 7.75 12.11 7.75C12.89 7.75 14.37 6.68 15.92 6.84C16.57 6.87 18.39 7.1 19.56 8.82C19.47 8.88 17.39 10.1 17.41 12.63C17.44 15.65 20.06 16.66 20.09 16.67C20.06 16.74 19.67 18.11 18.71 19.5M13 5.96C13.63 5.19 14.51 4.2 14.24 2.87C13.11 2.96 11.76 3.55 11.12 4.3C10.54 4.98 9.96 5.99 10.27 7.29C11.53 7.33 12.65 6.72 13 5.96" fill="currentColor"/>
        
    </g>
    
            <text x="50" y="24" class="platform-name" fill="#000000">IOS</text>
        </g>
        
            <g transform="translate(60, 550)">
                <text class="data-row" x="0" y="15">Total: </text>
                <text class="metric-value" x="50" y="15">71.66 MB</text>
                <text class="data-row" x="200" y="15">Package: </text>
                <text class="metric-value" x="280" y="15">21.91 MB</text>
            </g>
            
        <g transform="translate(40, 615)" filter="url(#dropShadow)">
            <rect width="720" height="40" fill="#00A4EF" opacity="0.1" rx="4"/>
            
    <g transform="translate(20, 10) scale(0.8)">
        
            <path d="M0,0 L9,0 9,9 0,9 Z" fill="#00A4EF"/>
            <path d="M10,0 L19,0 19,9 10,9 Z" fill="#7FBA00"/>
            <path d="M0,10 L9,10 9,19 0,19 Z" fill="#F25022"/>
            <path d="M10,10 L19,10 19,19 10,19 Z" fill="#FFB900"/>
        
    </g>
    
            <text x="50" y="24" class="platform-name" fill="#00A4EF">WINDOWS</text>
        </g>
        
            <g transform="translate(60, 660)">
                <text class="data-row" x="0" y="15">Total: </text>
                <text class="metric-value" x="50" y="15">177.91 MB</text>
                <text class="data-row" x="200" y="15">Package: </text>
                <text class="metric-value" x="280" y="15">154.65 MB</text>
            </g>
            
        <g transform="translate(40, 725)" filter="url(#dropShadow)">
            <rect width="720" height="40" fill="#999999" opacity="0.1" rx="4"/>
            
    <g transform="translate(20, 8) scale(0.8)">
        
            <path d="M18.71 19.5C17.88 20.74 17 21.95 15.66 21.97C14.32 22 13.89 21.18 12.37 21.18C10.84 21.18 10.37 21.95 9.1 22C7.79 22.05 6.8 20.68 5.96 19.47C4.25 17 2.94 12.45 4.7 9.39C5.57 7.87 7.13 6.91 8.82 6.88C10.1 6.86 11.32 7.75 12.11 7.75C12.89 7.75 14.37 6.68 15.92 6.84C16.57 6.87 18.39 7.1 19.56 8.82C19.47 8.88 17.39 10.1 17.41 12.63C17.44 15.65 20.06 16.66 20.09 16.67C20.06 16.74 19.67 18.11 18.71 19.5M13 5.96C13.63 5.19 14.51 4.2 14.24 2.87C13.11 2.96 11.76 3.55 11.12 4.3C10.54 4.98 9.96 5.99 10.27 7.29C11.53 7.33 12.65 6.72 13 5.96" fill="currentColor"/>
        
    </g>
    
            <text x="50" y="24" class="platform-name" fill="#999999">MACOS</text>
        </g>
        
            <g transform="translate(60, 770)">
                <text class="data-row" x="0" y="15">Total: </text>
                <text class="metric-value" x="50" y="15">171.54 MB</text>
                <text class="data-row" x="200" y="15">Package: </text>
                <text class="metric-value" x="280" y="15">127.31 MB</text>
            </g>
            </svg>