
    <svg xmlns="http://www.w3.org/2000/svg" viewBox="0 0 800 1025">
        
      <defs>
        <linearGradient id="headerGradient" x1="0%" y1="0%" x2="100%" y2="0%">
          <stop offset="0%" style="stop-color:#2d3748;stop-opacity:0.1" />
          <stop offset="100%" style="stop-color:#2d3748;stop-opacity:0.05" />
        </linearGradient>
        <filter id="dropShadow">
          <feDropShadow dx="0" dy="1" stdDeviation="2" flood-opacity="0.1"/>
        </filter>
        <style>
          @import url('https://fonts.googleapis.com/css2?family=Inter:wght@400;500;600&amp;display=swap');
          .title { font-family: 'Inter', sans-serif; font-size: 24px; font-weight: 600; }
          .subtitle { font-family: 'Inter', sans-serif; font-size: 14px; fill: #666; }
          .platform-name { font-family: 'Inter', sans-serif; font-size: 16px; font-weight: 500; }
          .data-row { font-family: 'Inter', sans-serif; font-size: 14px; }
          .metric-value { font-family: 'Inter', sans-serif; font-size: 14px; font-weight: 500; }
          .trend-indicator { font-family: 'Inter', sans-serif; font-size: 12px; }
          .section-header { font-family: 'Inter', sans-serif; font-size: 18px; font-weight: 600; }
        </style>
      </defs>
    
        
        <!-- Background -->
        <rect width="100%" height="100%" fill="#ffffff"/>
        
        <!-- Header -->
        <g transform="translate(40, 40)">
            <rect width="720" height="80" fill="url(#headerGradient)" rx="8"/>
            <text class="title" x="20" y="35">opencv_dart</text>
            <text class="subtitle" x="20" y="60">Size Analysis Report</text>
        </g>
    
        <g transform="translate(40, 150)" filter="url(#dropShadow)">
            <rect width="720" height="40" fill="#999999" opacity="0.1" rx="4"/>
            
      <g transform="translate(20, 8) scale(0.8)">
        
          <path d="M18.71 19.5C17.88 20.74 17 21.95 15.66 21.97C14.32 22 13.89 21.18 12.37 21.18C10.84 21.18 10.37 21.95 9.1 22C7.79 22.05 6.8 20.68 5.96 19.47C4.25 17 2.94 12.45 4.7 9.39C5.57 7.87 7.13 6.91 8.82 6.88C10.1 6.86 11.32 7.75 12.11 7.75C12.89 7.75 14.37 6.68 15.92 6.84C16.57 6.87 18.39 7.1 19.56 8.82C19.47 8.88 17.39 10.1 17.41 12.63C17.44 15.65 20.06 16.66 20.09 16.67C20.06 16.74 19.67 18.11 18.71 19.5M13 5.96C13.63 5.19 14.51 4.2 14.24 2.87C13.11 2.96 11.76 3.55 11.12 4.3C10.54 4.98 9.96 5.99 10.27 7.29C11.53 7.33 12.65 6.72 13 5.96" fill="currentColor"/>
        
      </g>
    
            <text x="50" y="24" class="platform-name" fill="#999999">MACOS</text>
        </g>
        
            <g transform="translate(60, 195)">
                <text class="data-row" x="0" y="15">Total: </text>
                <text class="metric-value" x="50" y="15">141.36 MB</text>
                <text class="data-row" x="200" y="15">Package: </text>
                <text class="metric-value" x="280" y="15">97.30 MB</text>
            </g>
            
        <g transform="translate(40, 260)" filter="url(#dropShadow)">
            <rect width="720" height="40" fill="#00A4EF" opacity="0.1" rx="4"/>
            
      <g transform="translate(20, 8) scale(0.8)">
        
          <path d="M0,0 L9,0 9,9 0,9 Z" fill="#00A4EF"/>
          <path d="M10,0 L19,0 19,9 10,9 Z" fill="#7FBA00"/>
          <path d="M0,10 L9,10 9,19 0,19 Z" fill="#F25022"/>
          <path d="M10,10 L19,10 19,19 10,19 Z" fill="#FFB900"/>
        
      </g>
    
            <text x="50" y="24" class="platform-name" fill="#00A4EF">WINDOWS</text>
        </g>
        
            <g transform="translate(60, 305)">
                <text class="data-row" x="0" y="15">Total: </text>
                <text class="metric-value" x="50" y="15">176.35 MB</text>
                <text class="data-row" x="200" y="15">Package: </text>
                <text class="metric-value" x="280" y="15">153.15 MB</text>
            </g>
            
        <g transform="translate(40, 370)" filter="url(#dropShadow)">
            <rect width="720" height="40" fill="#3DDC84" opacity="0.1" rx="4"/>
            
      <g transform="translate(20, 8) scale(0.8)">
        
          <path d="M17.6 9.48l1.84-3.18c.16-.31.04-.69-.26-.85a.637.637 0 0 0-.83.22l-1.88 3.24a11.463 11.463 0 0 0-8.94 0L5.65 5.67a.643.643 0 0 0-.87-.2c-.28.18-.37.54-.22.83L6.4 9.48A10.78 10.78 0 0 0 1 18h22a10.78 10.78 0 0 0-5.4-8.52zM7 15.25a1.25 1.25 0 1 1 0-2.5 1.25 1.25 0 0 1 0 2.5zm10 0a1.25 1.25 0 1 1 0-2.5 1.25 1.25 0 0 1 0 2.5z" fill="#3DDC84"/>
        
      </g>
    
            <text x="50" y="24" class="platform-name" fill="#3DDC84">ANDROID</text>
        </g>
        
                <g transform="translate(60, 415)">
                    <text class="data-row" x="0" y="15">arm64-v8a</text>
                    <text class="data-row" x="200" y="15">Total: </text>
                    <text class="metric-value" x="250" y="15">56.03 MB</text>
                    <text class="data-row" x="400" y="15">Package: </text>
                    <text class="metric-value" x="500" y="15">49.54 MB</text>
                </g>
                
                <g transform="translate(60, 460)">
                    <text class="data-row" x="0" y="15">armeabi-v7a</text>
                    <text class="data-row" x="200" y="15">Total: </text>
                    <text class="metric-value" x="250" y="15">42.12 MB</text>
                    <text class="data-row" x="400" y="15">Package: </text>
                    <text class="metric-value" x="500" y="15">36.17 MB</text>
                </g>
                
                <g transform="translate(60, 505)">
                    <text class="data-row" x="0" y="15">x86_64</text>
                    <text class="data-row" x="200" y="15">Total: </text>
                    <text class="metric-value" x="250" y="15">63.42 MB</text>
                    <text class="data-row" x="400" y="15">Package: </text>
                    <text class="metric-value" x="500" y="15">56.82 MB</text>
                </g>
                
                <g transform="translate(60, 550)">
                    <text class="data-row" x="0" y="15">full_apk_size</text>
                    <text class="data-row" x="200" y="15">Total: </text>
                    <text class="metric-value" x="250" y="15">159.47 MB</text>
                    <text class="data-row" x="400" y="15">Package: </text>
                    <text class="metric-value" x="500" y="15">141.59 MB</text>
                </g>
                
        <g transform="translate(40, 615)" filter="url(#dropShadow)">
            <rect width="720" height="40" fill="#666666" opacity="0.1" rx="4"/>
            
      <g transform="translate(20, 8) scale(0.8)">
        
          <path d="M18.71 19.5C17.88 20.74 17 21.95 15.66 21.97C14.32 22 13.89 21.18 12.37 21.18C10.84 21.18 10.37 21.95 9.1 22C7.79 22.05 6.8 20.68 5.96 19.47C4.25 17 2.94 12.45 4.7 9.39C5.57 7.87 7.13 6.91 8.82 6.88C10.1 6.86 11.32 7.75 12.11 7.75C12.89 7.75 14.37 6.68 15.92 6.84C16.57 6.87 18.39 7.1 19.56 8.82C19.47 8.88 17.39 10.1 17.41 12.63C17.44 15.65 20.06 16.66 20.09 16.67C20.06 16.74 19.67 18.11 18.71 19.5M13 5.96C13.63 5.19 14.51 4.2 14.24 2.87C13.11 2.96 11.76 3.55 11.12 4.3C10.54 4.98 9.96 5.99 10.27 7.29C11.53 7.33 12.65 6.72 13 5.96" fill="currentColor"/>
        
      </g>
    
            <text x="50" y="24" class="platform-name" fill="#666666">MACOS_ARM</text>
        </g>
        
            <g transform="translate(60, 660)">
                <text class="data-row" x="0" y="15">Total: </text>
                <text class="metric-value" x="50" y="15">141.36 MB</text>
                <text class="data-row" x="200" y="15">Package: </text>
                <text class="metric-value" x="280" y="15">97.29 MB</text>
            </g>
            
        <g transform="translate(40, 725)" filter="url(#dropShadow)">
            <rect width="720" height="40" fill="#FCC624" opacity="0.1" rx="4"/>
            
      <g transform="translate(20, 8) scale(0.8)">
        
      </g>
    
            <text x="50" y="24" class="platform-name" fill="#FCC624">LINUX</text>
        </g>
        
            <g transform="translate(60, 770)">
                <text class="data-row" x="0" y="15">Total: </text>
                <text class="metric-value" x="50" y="15">201.05 MB</text>
                <text class="data-row" x="200" y="15">Package: </text>
                <text class="metric-value" x="280" y="15">180.90 MB</text>
            </g>
            
        <g transform="translate(40, 835)" filter="url(#dropShadow)">
            <rect width="720" height="40" fill="#000000" opacity="0.1" rx="4"/>
            
      <g transform="translate(20, 8) scale(0.8)">
        
          <path d="M18.71 19.5C17.88 20.74 17 21.95 15.66 21.97C14.32 22 13.89 21.18 12.37 21.18C10.84 21.18 10.37 21.95 9.1 22C7.79 22.05 6.8 20.68 5.96 19.47C4.25 17 2.94 12.45 4.7 9.39C5.57 7.87 7.13 6.91 8.82 6.88C10.1 6.86 11.32 7.75 12.11 7.75C12.89 7.75 14.37 6.68 15.92 6.84C16.57 6.87 18.39 7.1 19.56 8.82C19.47 8.88 17.39 10.1 17.41 12.63C17.44 15.65 20.06 16.66 20.09 16.67C20.06 16.74 19.67 18.11 18.71 19.5M13 5.96C13.63 5.19 14.51 4.2 14.24 2.87C13.11 2.96 11.76 3.55 11.12 4.3C10.54 4.98 9.96 5.99 10.27 7.29C11.53 7.33 12.65 6.72 13 5.96" fill="currentColor"/>
        
      </g>
    
            <text x="50" y="24" class="platform-name" fill="#000000">IOS</text>
        </g>
        
            <g transform="translate(60, 880)">
                <text class="data-row" x="0" y="15">Total: </text>
                <text class="metric-value" x="50" y="15">71.58 MB</text>
                <text class="data-row" x="200" y="15">Package: </text>
                <text class="metric-value" x="280" y="15">21.97 MB</text>
            </g>
            </svg>